<svg width="1458.875px" height="336.8px" xmlns="http://www.w3.org/2000/svg" viewBox="-479.4375 -93.4 1458.875 336.8" style="background: rgba(0, 0, 0, 0);" preserveAspectRatio="xMidYMid"><defs><filter id="editing-hole" x="-100%" y="-100%" width="300%" height="300%"><feFlood flood-color="#000" result="black"></feFlood><feMorphology operator="dilate" radius="2" in="SourceGraphic" result="erode"></feMorphology><feGaussianBlur in="erode" stdDeviation="4" result="blur"></feGaussianBlur><feOffset in="blur" dx="2" dy="2" result="offset"></feOffset><feComposite operator="atop" in="offset" in2="black" result="merge"></feComposite><feComposite operator="in" in="merge" in2="SourceGraphic" result="inner-shadow"></feComposite></filter></defs><g filter="url(#editing-hole)"><g transform="translate(-277.6999877691269, 150)"><path d="M1.40-1L1.40-1L26.60-132L26.60-132Q50.20-134 65.40-134L65.40-134L65.40-134Q80.60-134 90.40-132.70L90.40-132.70L90.40-132.70Q100.20-131.40 106.80-128L106.80-128L106.80-128Q120-121.60 120-104L120-104L120-104Q120-93.80 111.20-85.20L111.20-85.20L111.20-85.20Q103-77.40 94-75.60L94-75.60L94-75.60Q103.60-74 110.40-66.80L110.40-66.80L110.40-66.80Q117.60-59.20 117.60-47.40L117.60-47.40L117.60-47.40Q117.60-24.60 100.60-11.30L100.60-11.30L100.60-11.30Q83.60 2 50.20 2L50.20 2L50.20 2Q27.20 2 1.40-1ZM55.80-64.40L45.80-12.60L45.80-12.60Q47.60-12.40 48-12.40L48-12.40L49.80-12.40L49.80-12.40Q66.20-12.40 73.20-23.20L73.20-23.20L73.20-23.20Q78.40-31.60 78.40-47L78.40-47L78.40-47Q78.40-55.20 73.10-59.60L73.10-59.60L73.10-59.60Q67.80-64 55.80-64.40L55.80-64.40ZM86.20-103.80L86.20-103.80L86.20-103.80Q86.20-120.40 70.20-120.40L70.20-120.40L68.40-120.40L68.40-120.40Q67.60-120.40 66.40-120.20L66.40-120.20L58.40-78L60.40-78L60.40-78Q86.20-78.60 86.20-103.80ZM178.60-11L178.60-11L178.60-11Q172.40 4 152.60 4L152.60 4L152.60 4Q142.60 4 136.20-3L136.20-3L136.20-3Q131-8.80 131-15.40L131-15.40L131-15.40Q131-30.40 138-63.20L138-63.20L152.60-140L193.20-144L173.80-42.80L173.80-42.80Q170.40-28 170.40-22.80L170.40-22.80L170.40-22.80Q170.40-11.40 178.60-11ZM243.60-11L243.60-11L243.60-11Q237.40 4 217.60 4L217.60 4L217.60 4Q207.40 4 201-3L201-3L201-3Q195.60-9.20 195.60-15.40L195.60-15.40L195.60-15.40Q195.60-31.60 203-63.20L203-63.20L210.40-102L251-106L238.80-42.80L238.80-42.80Q235.40-28 235.40-22.80L235.40-22.80L235.40-22.80Q235.40-11.40 243.60-11ZM214-129.80L214-129.80L214-129.80Q214-137.60 220.50-141.80L220.50-141.80L220.50-141.80Q227-146 236.40-146L236.40-146L236.40-146Q245.80-146 251.50-141.80L251.50-141.80L251.50-141.80Q257.20-137.60 257.20-129.80L257.20-129.80L257.20-129.80Q257.20-122 250.90-118L250.90-118L250.90-118Q244.60-114 235.20-114L235.20-114L235.20-114Q225.80-114 219.90-118L219.90-118L219.90-118Q214-122 214-129.80ZM345.20 4L345.20 4L345.20 4Q321 4 321-14.80L321-14.80L321-14.80Q321.20-20 322.80-28.80L322.80-28.80L326.40-47.20L326.40-47.20Q331.80-73.20 331.80-79L331.80-79L331.80-79Q331.80-90.60 325-90.60L325-90.60L325-90.60Q313.60-90.60 307.60-60.80L307.60-60.80L295.80 0L255.60 4L276.40-102.20L309.20-106L306-86.40L306-86.40Q315.40-106 344.20-106L344.20-106L344.20-106Q358.20-106 364.10-100.10L364.10-100.10L364.10-100.10Q370-94.20 370-81L370-81L370-81Q370-68.60 363.60-39.60L363.60-39.60L363.60-39.60Q360.60-26.60 360.60-21.70L360.60-21.70L360.60-21.70Q360.60-16.80 363.30-14L363.30-14L363.30-14Q366-11.20 370-10.80L370-10.80L370-10.80Q368-4 361.10 0L361.10 0L361.10 0Q354.20 4 345.20 4ZM449-106L449-106L449-106Q456.20-106 461.80-104.40L461.80-104.40L461.80-104.40Q462-105.20 462.40-107.40L462.40-107.40L463.40-113.60L463.40-113.60Q464.20-117.60 465.40-124.20L465.40-124.20L468.60-140L508.40-144L486.20-28L486.20-28Q486-26.80 486-24.80L486-24.80L486-21.60L486-21.60Q486-17.20 488.20-13.90L488.20-13.90L488.20-13.90Q490.40-10.60 494-10.60L494-10.60L494-10.60Q490-1.20 477.80 2.80L477.80 2.80L477.80 2.80Q473.60 4 467.70 4L467.70 4L467.70 4Q461.80 4 456.40 0.90L456.40 0.90L456.40 0.90Q451-2.20 449.40-7.40L449.40-7.40L449.40-7.40Q446.20-2.20 439.80 0.90L439.80 0.90L439.80 0.90Q433.40 4 424.10 4L424.10 4L424.10 4Q414.80 4 407.10 1.60L407.10 1.60L407.10 1.60Q399.40-0.80 394.60-6L394.60-6L394.60-6Q385.80-16.20 385.80-39.40L385.80-39.40L385.80-39.40Q385.80-69.40 403.40-87.60L403.40-87.60L403.40-87.60Q421-106 449-106ZM447.60-94L447.60-94L447.60-94Q440.20-94 436.20-86L436.20-86L436.20-86Q432.20-78 428.10-58.20L428.10-58.20L428.10-58.20Q424-38.40 424-20.60L424-20.60L424-20.60Q424-8.40 431.20-8.40L431.20-8.40L431.20-8.40Q437.60-8.40 442.10-14.80L442.10-14.80L442.10-14.80Q446.60-21.20 448.40-31.80L448.40-31.80L459.20-90.40L459.20-90.40Q455-94 447.60-94ZM609.20-83.20L609.20-83.20L609.20-83.20Q609.20-74.80 602.20-69.60L602.20-69.60L602.20-69.60Q595.20-64.40 583.80-64.40L583.80-64.40L583.80-64.40Q579-64.40 576.20-65.80L576.20-65.80L576.20-65.80Q578.40-71 579.10-77.50L579.10-77.50L579.10-77.50Q579.80-84 579.80-85.80L579.80-85.80L579.80-85.80Q579.80-94.20 574-94.20L574-94.20L574-94.20Q570-94.20 565.50-89.20L565.50-89.20L565.50-89.20Q561-84.20 557.20-76.40L557.20-76.40L557.20-76.40Q548.80-58.40 548.80-40.20L548.80-40.20L548.80-40.20Q548.80-30.20 552.60-25.70L552.60-25.70L552.60-25.70Q556.40-21.20 564.80-21.20L564.80-21.20L564.80-21.20Q576.40-21.20 585.60-30.80L585.60-30.80L585.60-30.80Q588.20-33.80 589.60-37.20L589.60-37.20L589.60-37.20Q597.20-33.20 597.20-22.20L597.20-22.20L597.20-22.20Q597.20-11 584.80-3.60L584.80-3.60L584.80-3.60Q572 4 551.60 4L551.60 4L551.60 4Q511 4 511-39L511-39L511-39Q511-70.40 528.80-88.40L528.80-88.40L528.80-88.40Q546-106 577.60-106L577.60-106L577.60-106Q609.20-106 609.20-83.20ZM658.20 4L658.20 4L658.20 4Q614.20 4 614.20-37.40L614.20-37.40L614.20-37.40Q614.20-66.80 630.40-85.80L630.40-85.80L630.40-85.80Q647.60-106 677.40-106L677.40-106L677.40-106Q699-106 710-96L710-96L710-96Q721-86 721-65L721-65L721-65Q721-33 703.80-14.40L703.80-14.40L703.80-14.40Q687 4 658.20 4ZM663.40-83L663.40-83L663.40-83Q661-77.60 659.10-69.50L659.10-69.50L659.10-69.50Q657.20-61.40 654.80-48.60L654.80-48.60L654.80-48.60Q652.40-35.80 652.40-20L652.40-20L652.40-20Q652.40-14.80 654.10-11.40L654.10-11.40L654.10-11.40Q655.80-8 660.40-8L660.40-8L660.40-8Q665-8 667.90-10.20L667.90-10.20L667.90-10.20Q670.80-12.40 673-17.60L673-17.60L673-17.60Q677-26.80 680.20-43.90L680.20-43.90L680.20-43.90Q683.40-61 683.70-68.40L683.70-68.40L683.70-68.40Q684-75.80 684-81.30L684-81.30L684-81.30Q684-86.80 682.40-90.40L682.40-90.40L682.40-90.40Q680.80-94 676.30-94L676.30-94L676.30-94Q671.80-94 668.80-91.20L668.80-91.20L668.80-91.20Q665.80-88.40 663.40-83ZM795.80-106L795.80-106L795.80-106Q803.00-106 808.60-104.40L808.60-104.40L808.60-104.40Q808.80-105.20 809.20-107.40L809.20-107.40L810.20-113.60L810.20-113.60Q811.00-117.60 812.20-124.20L812.20-124.20L815.40-140L855.20-144L833.00-28L833.00-28Q832.80-26.80 832.80-24.80L832.80-24.80L832.80-21.60L832.80-21.60Q832.80-17.20 835.00-13.90L835.00-13.90L835.00-13.90Q837.20-10.60 840.80-10.60L840.80-10.60L840.80-10.60Q836.80-1.20 824.60 2.80L824.60 2.80L824.60 2.80Q820.40 4 814.50 4L814.50 4L814.50 4Q808.60 4 803.20 0.90L803.20 0.90L803.20 0.90Q797.80-2.20 796.20-7.40L796.20-7.40L796.20-7.40Q793.00-2.20 786.60 0.90L786.60 0.90L786.60 0.90Q780.20 4 770.90 4L770.90 4L770.90 4Q761.60 4 753.90 1.60L753.90 1.60L753.90 1.60Q746.20-0.80 741.40-6L741.40-6L741.40-6Q732.60-16.20 732.60-39.40L732.60-39.40L732.60-39.40Q732.60-69.40 750.20-87.60L750.20-87.60L750.20-87.60Q767.80-106 795.80-106ZM794.40-94L794.40-94L794.40-94Q787.00-94 783.00-86L783.00-86L783.00-86Q779.00-78 774.90-58.20L774.90-58.20L774.90-58.20Q770.80-38.40 770.80-20.60L770.80-20.60L770.80-20.60Q770.80-8.40 778.00-8.40L778.00-8.40L778.00-8.40Q784.40-8.40 788.90-14.80L788.90-14.80L788.90-14.80Q793.40-21.20 795.20-31.80L795.20-31.80L806.00-90.40L806.00-90.40Q801.80-94 794.40-94ZM938.80-33.80L938.80-33.80L938.80-33.80Q943.80-30.40 943.80-22.90L943.80-22.90L943.80-22.90Q943.80-15.40 940.00-10.60L940.00-10.60L940.00-10.60Q936.20-5.80 930.00-2.60L930.00-2.60L930.00-2.60Q917.20 4 903.40 4L903.40 4L903.40 4Q889.60 4 881.50 1L881.50 1L881.50 1Q873.40-2 868.00-7.60L868.00-7.60L868.00-7.60Q857.40-18.20 857.40-37.60L857.40-37.60L857.40-37.60Q857.40-67.80 873.80-86.20L873.80-86.20L873.80-86.20Q891.40-106 922.00-106L922.00-106L922.00-106Q941.00-106 950.40-98L950.40-98L950.40-98Q957.40-92 957.40-82.20L957.40-82.20L957.40-82.20Q957.40-47 896.60-47L896.60-47L896.60-47Q895.80-41.80 895.80-37.40L895.80-37.40L895.80-37.40Q895.80-28.20 899.90-24.70L899.90-24.70L899.90-24.70Q904.00-21.20 911.60-21.20L911.60-21.20L911.60-21.20Q919.20-21.20 927.30-24.70L927.30-24.70L927.30-24.70Q935.40-28.20 938.80-33.80ZM898.00-55.60L898.00-55.60L898.00-55.60Q912.20-55.60 920.40-64.40L920.40-64.40L920.40-64.40Q928.60-72.80 928.60-86.20L928.60-86.20L928.60-86.20Q928.60-90.80 926.90-93.30L926.90-93.30L926.90-93.30Q925.20-95.80 921.80-95.80L921.80-95.80L921.80-95.80Q918.40-95.80 915.50-94.50L915.50-94.50L915.50-94.50Q912.60-93.20 909.60-88.80L909.60-88.80L909.60-88.80Q902.20-78.80 898.00-55.60ZM1024-70.20L1024-70.20L1024-70.20Q1026.80-77.60 1026.80-84L1026.80-84L1026.80-84Q1026.80-95.80 1017.20-95.80L1017.20-95.80L1017.20-95.80Q1012.20-95.80 1008.10-91.30L1008.10-91.30L1008.10-91.30Q1004.00-86.80 1004.00-81.20L1004.00-81.20L1004.00-81.20Q1004.00-77.20 1007.20-74L1007.20-74L1007.20-74Q1011.80-69.60 1023.60-62.40L1023.60-62.40L1023.60-62.40Q1035.40-55.20 1039.90-49.30L1039.90-49.30L1039.90-49.30Q1044.40-43.40 1044.40-35.30L1044.40-35.30L1044.40-35.30Q1044.40-27.20 1040.50-19.80L1040.50-19.80L1040.50-19.80Q1036.60-12.40 1029.60-7.20L1029.60-7.20L1029.60-7.20Q1014.60 4 990.60 4L990.60 4L990.60 4Q977.60 4 967.60-2.80L967.60-2.80L967.60-2.80Q957.60-9.40 957.60-17.20L957.60-17.20L957.60-17.20Q957.60-25 963.30-29.60L963.30-29.60L963.30-29.60Q969.00-34.20 977.40-34.20L977.40-34.20L977.40-34.20Q985.80-34.20 991.00-31L991.00-31L991.00-31Q988.40-24.40 988.40-20L988.40-20L988.40-20Q988.40-6.80 999.60-6.80L999.60-6.80L999.60-6.80Q1004.40-6.80 1007.60-9.80L1007.60-9.80L1007.60-9.80Q1010.80-12.80 1010.80-18L1010.80-18L1010.80-18Q1010.80-28.20 993.60-39L993.60-39L993.60-39Q979.60-48.20 976.40-51.80L976.40-51.80L976.40-51.80Q971.00-58.20 971.00-66.20L971.00-66.20L971.00-66.20Q971.00-74.20 974.80-81.80L974.80-81.80L974.80-81.80Q978.60-89.40 985.60-94.80L985.60-94.80L985.60-94.80Q1000.20-106 1025.60-106L1025.60-106L1025.60-106Q1038.60-106 1046.30-100.80L1046.30-100.80L1046.30-100.80Q1054-95.60 1054-86.80L1054-86.80L1054-86.80Q1054-78 1048.70-73L1048.70-73L1048.70-73Q1043.40-68 1033.80-68L1033.80-68L1033.80-68Q1027.20-68 1024-70.20Z" fill="#ccc"></path></g></g><style>text {
  font-size: 64px;
  font-family: Arial Black;
  dominant-baseline: central;
  text-anchor: middle;
}</style></svg>